<svg xmlns="http://www.w3.org/2000/svg" xmlns:xlink="http://www.w3.org/1999/xlink" viewBox="0 0 130.69 130.69"><defs><style>.cls-1{fill:none;clip-rule:evenodd;}.cls-2,.cls-3,.cls-4,.cls-5{fill-rule:evenodd;}.cls-2{fill:url(#linear-gradient);}.cls-3{fill:url(#linear-gradient-2);}.cls-4{fill:url(#linear-gradient-3);}.cls-5{fill:url(#linear-gradient-4);}.cls-6{clip-path:url(#clip-path);}.cls-7{fill:url(#linear-gradient-5);}</style><linearGradient id="linear-gradient" x1="30.01" y1="66.11" x2="62.76" y2="66.11" gradientUnits="userSpaceOnUse"><stop offset="0" stop-color="#012324"/><stop offset="1" stop-color="#63c3d7"/></linearGradient><linearGradient id="linear-gradient-2" x1="27.24" y1="64.05" x2="60" y2="64.05" xlink:href="#linear-gradient"/><linearGradient id="linear-gradient-3" x1="73.38" y1="65.08" x2="106.86" y2="65.08" xlink:href="#linear-gradient"/><linearGradient id="linear-gradient-4" x1="70.62" y1="63.02" x2="104.1" y2="63.02" xlink:href="#linear-gradient"/><clipPath id="clip-path"><path class="cls-1" d="M0,65.35a65.35,65.35,0,1,1,65.35,65.34A65.35,65.35,0,0,1,0,65.35m65.35,55.86A55.86,55.86,0,1,0,9.49,65.35,55.86,55.86,0,0,0,65.35,121.21Z"/></clipPath><linearGradient id="linear-gradient-5" x1="123.9" y1="65.39" x2="18.31" y2="65.31" xlink:href="#linear-gradient"/></defs><g id="Layer_2" data-name="Layer 2"><g id="Layer_1-2" data-name="Layer 1"><path class="cls-2" d="M41.84,55.39a1.92,1.92,0,0,0,1,1.18A34.47,34.47,0,0,0,47.61,59c2.22,1,4.09,1.94,6.22,3.07a24.71,24.71,0,0,0,6.59,2.64c2.09.44,2.93,1.33,1.91,3.39C61.4,70,61.26,70,61.69,72.38a16.26,16.26,0,0,1,.26,3,13.6,13.6,0,0,1-4.06,10.06c-3.16,3.11-7.71,4-12,4a17.93,17.93,0,0,1-8.37-1.84,14.09,14.09,0,0,1-5.46-4.87,12.6,12.6,0,0,1-2-6.29l0-.72.92-1.11,8.5-1.23,1.25,1,.09.79a4.51,4.51,0,0,0,1.5,3,5.28,5.28,0,0,0,3.57,1.14c4.59,0,6.74-3.07,3.88-7.1A7.69,7.69,0,0,0,48.81,71c-1.49-1.45,1-1.17-1.31-2.24C45.59,67.93,41.61,67,38,65.3h0a25.18,25.18,0,0,1-3.33-2,6.83,6.83,0,0,1-1.88-1.87A11.14,11.14,0,0,1,31,55a11,11,0,0,1,1.77-6,12.67,12.67,0,0,1,5.27-4.51,18.67,18.67,0,0,1,8.24-1.67,25.21,25.21,0,0,1,5.2.45,19.54,19.54,0,0,1,4.27,1.51l.64.31L57,46.45,54.43,54,53,54.71l-.74-.24a34.17,34.17,0,0,0-3.28-1,12.31,12.31,0,0,0-2.64-.25,7.26,7.26,0,0,0-3.87.82A1.34,1.34,0,0,0,41.84,55.39Z"/><path class="cls-3" d="M39.08,53.32a1.94,1.94,0,0,0,1,1.19A34.47,34.47,0,0,0,44.85,57c2.22,1,4.08,1.94,6.22,3.07a24.58,24.58,0,0,0,6.59,2.64c2.08.44,2.93,1.33,1.91,3.38-.93,1.88-1.07,1.9-.64,4.26a17.12,17.12,0,0,1,.26,3,13.57,13.57,0,0,1-4.06,10c-3.17,3.11-7.71,4-12,4a17.93,17.93,0,0,1-8.37-1.84,14,14,0,0,1-5.46-4.87,12.74,12.74,0,0,1-2-6.29l0-.72.92-1.12,8.5-1.22,1.26,1L38,73a4.42,4.42,0,0,0,1.5,3,5.28,5.28,0,0,0,3.57,1.14c4.58,0,6.74-3.06,3.88-7.1A8.35,8.35,0,0,0,46.05,69c-1.49-1.46,1-1.18-1.32-2.24-1.9-.88-5.88-1.79-9.46-3.5h0a24.68,24.68,0,0,1-3.33-2,6.83,6.83,0,0,1-1.88-1.87,11.16,11.16,0,0,1-1.78-6.43,11,11,0,0,1,1.77-6,12.72,12.72,0,0,1,5.27-4.5,18.63,18.63,0,0,1,8.23-1.68,24.58,24.58,0,0,1,5.21.46A19,19,0,0,1,53,42.77l.64.31.55,1.31L51.67,52l-1.39.69-.74-.24a31.52,31.52,0,0,0-3.28-1,12.4,12.4,0,0,0-2.65-.25,7.32,7.32,0,0,0-3.86.81A1.36,1.36,0,0,0,39.08,53.32Z"/><path class="cls-4" d="M93.12,76.86H86.6l-2.14,10-1,.84H74.51l-1.13-1.42Q75,79.35,76.63,72.41c.45-1.94,1.76-2.76,3.38-3.75.67-.4,2.84-1.43,2.77-2.36-.1-1.35-4-2.45-3.48-5.27.35-1.84.93-4,1.36-5.83q1.28-5.4,2.54-10.82c.08-.37.17-.74.26-1.11l1-.81H95l1,.79,1.32,5.24L98.71,54l.9,3.59c.32,1.24.76,3.7,1.48,4.66,1.29,1.72,4.78,3.06,5.26,4.15s-1.4,2.16-2,2.77c-1.75,1.78-1.09,2.84-.55,5,.34,1.38.69,2.76,1,4.14.68,2.66,1.35,5.33,2,8l-1.12,1.45H96.39l-1-.82-2.24-10ZM89.71,62.17l-.18,0c.07,1.22,1.41,2.63,2.18,3.54,0,0,.7.9.3,1.16H94.2c.31,0,.75.1,1-.12.52-.47.42-.56-.12-1C94,64.89,90.91,62.16,89.71,62.17Z"/><path class="cls-5" d="M90.36,74.8H83.83l-2.13,10-1,.84H71.74l-1.12-1.43q1.62-6.93,3.25-13.87c.45-1.95,1.76-2.76,3.38-3.75.66-.41,2.84-1.44,2.77-2.36-.1-1.35-4-2.45-3.48-5.27.35-1.84.92-4,1.36-5.83q1.26-5.41,2.53-10.82c.09-.37.18-.74.26-1.11l1-.82H92.21l1,.8c.45,1.74.89,3.49,1.33,5.23s.93,3.68,1.39,5.52c.31,1.19.61,2.39.91,3.58s.76,3.71,1.48,4.67c1.28,1.72,4.78,3.06,5.26,4.14s-1.41,2.16-2,2.77c-1.75,1.79-1.09,2.85-.56,5l1,4.13c.67,2.67,1.35,5.33,2,8L103,85.65H93.63l-1-.83-2.24-10ZM87,60.11l-.18,0c.07,1.21,1.4,2.63,2.18,3.54,0,0,.69.9.3,1.16h2.18c.31,0,.75.1,1-.12.52-.47.42-.56-.12-1C91.26,62.83,88.15,60.09,87,60.11Z"/><g class="cls-6"><rect class="cls-7" width="130.69" height="130.69"/></g></g></g></svg>